HIERARCHY
ROOT hip
{
  OFFSET 0 0 0
  CHANNELS 6 Xposition Yposition Zposition Zrotation Yrotation Xrotation
  JOINT abdomen
  {
    OFFSET 0 20.6881 -0.73152
    CHANNELS 3 Zrotation Xrotation Yrotation
    JOINT chest
    {
      OFFSET 0 11.7043 -0.48768
      CHANNELS 3 Zrotation Xrotation Yrotation
      JOINT neck
      {
        OFFSET 0 22.1894 -2.19456
        CHANNELS 3 Zrotation Xrotation Yrotation
        JOINT head
        {
          OFFSET -0.24384 7.07133 1.2192
          CHANNELS 3 Zrotation Xrotation Yrotation
          JOINT leftEye
          {
            OFFSET 4.14528 8.04674 8.04672
            CHANNELS 3 Zrotation Xrotation Yrotation
            End Site
            {
              OFFSET 1 0 0
            }
          }
          JOINT rightEye
          {
            OFFSET -3.6576 8.04674 8.04672
            CHANNELS 3 Zrotation Xrotation Yrotation
            End Site
            {
              OFFSET 1 0 0
            }
          }
        }
      }
      JOINT rCollar
      {
        OFFSET -2.68224 19.2634 -4.8768
        CHANNELS 3 Zrotation Xrotation Yrotation
        JOINT rShldr
        {
          OFFSET -8.77824 -1.95073 1.46304
          CHANNELS 3 Zrotation Xrotation Yrotation
          JOINT rForeArm
          {
            OFFSET -28.1742 -1.7115 0.48768
            CHANNELS 3 Zrotation Xrotation Yrotation
            JOINT rHand
            {
              OFFSET -22.5879 0.773209 7.07136
              CHANNELS 3 Zrotation Xrotation Yrotation
              JOINT rThumb1
              {
                OFFSET -1.2192 -0.487915 3.41376
                CHANNELS 3 Zrotation Xrotation Yrotation
                JOINT rThumb2
                {
                  OFFSET -3.37035 -0.52449 3.41376
                  CHANNELS 3 Zrotation Xrotation Yrotation
                  End Site
                  {
                    OFFSET -1.78271 -1.18214 1.43049
                  }
                }
              }
              JOINT rIndex1
              {
                OFFSET -7.75947 0.938293 5.60832
                CHANNELS 3 Zrotation Xrotation Yrotation
                JOINT rIndex2
                {
                  OFFSET -2.54057 -0.884171 1.56538
                  CHANNELS 3 Zrotation Xrotation Yrotation
                  End Site
                  {
                    OFFSET -1.62519 -0.234802 1.16502
                  }
                }
              }
              JOINT rMid1
              {
                OFFSET -8.24714 1.18213 3.41376
                CHANNELS 3 Zrotation Xrotation Yrotation
                JOINT rMid2
                {
                  OFFSET -3.10165 -0.590103 1.0647
                  CHANNELS 3 Zrotation Xrotation Yrotation
                  End Site
                  {
                    OFFSET -2.48547 -0.328903 0.83742
                  }
                }
              }
              JOINT rRing1
              {
                OFFSET -8.82822 0.546677 1.51678
                CHANNELS 3 Zrotation Xrotation Yrotation
                JOINT rRing2
                {
                  OFFSET -2.60934 -0.819778 -0.0198488
                  CHANNELS 3 Zrotation Xrotation Yrotation
                  End Site
                  {
                    OFFSET -2.33842 -0.294052 0.168128
                  }
                }
              }
              JOINT rPinky1
              {
                OFFSET -8.27202 -0.0477905 -0.4584
                CHANNELS 3 Zrotation Xrotation Yrotation
                JOINT rPinky2
                {
                  OFFSET -1.82734 -0.647385 -0.700984
                  CHANNELS 3 Zrotation Xrotation Yrotation
                  End Site
                  {
                    OFFSET -1.69225 -0.51767 -0.607171
                  }
                }
              }
            }
          }
        }
      }
      JOINT lCollar
      {
        OFFSET 2.68224 19.2634 -4.8768
        CHANNELS 3 Zrotation Xrotation Yrotation
        JOINT lShldr
        {
          OFFSET 8.77824 -1.95073 1.46304
          CHANNELS 3 Zrotation Xrotation Yrotation
          JOINT lForeArm
          {
            OFFSET 28.1742 -1.7115 0.48768
            CHANNELS 3 Zrotation Xrotation Yrotation
            JOINT lHand
            {
              OFFSET 22.5879 0.773209 7.07136
              CHANNELS 3 Zrotation Xrotation Yrotation
              JOINT lThumb1
              {
                OFFSET 1.2192 -0.487915 3.41376
                CHANNELS 3 Zrotation Xrotation Yrotation
                JOINT lThumb2
                {
                  OFFSET 3.37035 -0.52449 3.41376
                  CHANNELS 3 Zrotation Xrotation Yrotation
                  End Site
                  {
                    OFFSET 1.78271 -1.18214 1.43049
                  }
                }
              }
              JOINT lIndex1
              {
                OFFSET 7.75947 0.938293 5.60832
                CHANNELS 3 Zrotation Xrotation Yrotation
                JOINT lIndex2
                {
                  OFFSET 2.54057 -0.884171 1.56538
                  CHANNELS 3 Zrotation Xrotation Yrotation
                  End Site
                  {
                    OFFSET 1.62519 -0.234802 1.16502
                  }
                }
              }
              JOINT lMid1
              {
                OFFSET 8.24714 1.18213 3.41376
                CHANNELS 3 Zrotation Xrotation Yrotation
                JOINT lMid2
                {
                  OFFSET 3.10165 -0.590103 1.0647
                  CHANNELS 3 Zrotation Xrotation Yrotation
                  End Site
                  {
                    OFFSET 2.48547 -0.328903 0.83742
                  }
                }
              }
              JOINT lRing1
              {
                OFFSET 8.82822 0.546677 1.51678
                CHANNELS 3 Zrotation Xrotation Yrotation
                JOINT lRing2
                {
                  OFFSET 2.60934 -0.819778 -0.0198488
                  CHANNELS 3 Zrotation Xrotation Yrotation
                  End Site
                  {
                    OFFSET 2.33842 -0.294052 0.168128
                  }
                }
              }
              JOINT lPinky1
              {
                OFFSET 8.27202 -0.0477905 -0.4584
                CHANNELS 3 Zrotation Xrotation Yrotation
                JOINT lPinky2
                {
                  OFFSET 1.82734 -0.647385 -0.700984
                  CHANNELS 3 Zrotation Xrotation Yrotation
                  End Site
                  {
                    OFFSET 1.69225 -0.51767 -0.607171
                  }
                }
              }
            }
          }
        }
      }
    }
  }
  JOINT rButtock
  {
    OFFSET -8.77824 4.35084 1.2192
    CHANNELS 3 Zrotation Xrotation Yrotation
    JOINT rThigh
    {
      OFFSET 0 -1.70687 -2.19456
      CHANNELS 3 Zrotation Xrotation Yrotation
      JOINT rShin
      {
        OFFSET 0 -36.8199 0.73152
        CHANNELS 3 Zrotation Xrotation Yrotation
        JOINT rFoot
        {
          OFFSET 0.73152 -45.1104 -5.12064
          CHANNELS 3 Zrotation Xrotation Yrotation
          End Site
          {
            OFFSET -1.1221 -3.69964 12.103
          }
        }
      }
    }
  }
  JOINT lButtock
  {
    OFFSET 8.77824 4.35084 1.2192
    CHANNELS 3 Zrotation Xrotation Yrotation
    JOINT lThigh
    {
      OFFSET 0 -1.70687 -2.19456
      CHANNELS 3 Zrotation Xrotation Yrotation
      JOINT lShin
      {
        OFFSET 0 -36.8199 0.73152
        CHANNELS 3 Zrotation Xrotation Yrotation
        JOINT lFoot
        {
          OFFSET -0.73152 -45.1104 -5.12064
          CHANNELS 3 Zrotation Xrotation Yrotation
          End Site
          {
            OFFSET 1.1221 -3.69964 12.103
          }
        }
      }
    }
  }
}
MOTION
Frames:	9
Frame Time:	0.00833333
0.0 0.0 0.0 0.0 0.0 0.0 0.0 0.0 0.0 0.0 0.0 0.0 0.0 0.0 0.0 0.0 0.0 0.0 0.0 0.0 0.0 0.0 0.0 0.0 0.0 0.0 0.0 0.0 0.0 0.0 0.0 0.0 0.0 0.0 0.0 0.0 0.0 0.0 0.0 0.0 0.0 0.0 0.0 0.0 0.0 0.0 0.0 0.0 0.0 0.0 0.0 0.0 0.0 0.0 0.0 0.0 0.0 0.0 0.0 0.0 0.0 0.0 0.0 0.0 0.0 0.0 0.0 0.0 0.0 0.0 0.0 0.0 0.0 0.0 0.0 0.0 0.0 0.0 0.0 0.0 0.0 0.0 0.0 0.0 0.0 0.0 0.0 0.0 0.0 0.0 0.0 0.0 0.0 0.0 0.0 0.0 0.0 0.0 0.0 0.0 0.0 0.0 0.0 0.0 0.0 0.0 0.0 0.0 0.0 0.0 0.0 0.0 0.0 0.0 0.0 0.0 0.0 0.0 0.0 0.0 0.0 0.0 0.0 0.0 0.0 0.0 0.0 0.0 0.0 0.0 0.0 0.0
0.7314 53.428200000000004 -2.2452 -138.342243 -15.379484 -129.943892 160.31083 -11.757352 180.0 178.688082 16.768962 159.441689 -92.008394 -35.141636 22.468444 134.844205 -2.272002 -76.301293 -60.568928 21.094693 -35.367802 -43.95005 -19.313027 45.727413 -76.756893 -44.030275 -169.72985 -32.172297 -37.672462 143.846037 5.379311 63.181621 -97.505257 67.722977 -18.240274 -108.653079 168.874648 -5.872711 126.499228 117.672788 -17.295647 -134.09455 21.778136 6.648233 -88.550063 6.722519 -5.368615 85.774459 43.845474 -65.44958 106.279186 -130.393726 -10.084978 -46.878191 72.707889 -56.207397 -84.133829 30.192932 -25.294 -117.667475 -150.605057 -34.7202 179.722761 -179.420611 -55.521657 -31.734442 -86.711075 9.156449 -80.315589 -87.575013 19.698708 60.597002 179.978685 5.649878 -23.667662 139.032623 11.469614 56.443397 130.308011 81.22879 6.892045 -71.876079 -52.473716 -94.383868 16.77087 -51.623692 77.202579 138.194054 -54.672027 48.306492 2.429169 -49.116906 172.945448 139.971277 -56.285073 -43.229447 -162.460337 0.917197 -128.909136 -15.627681 9.340381 139.960393 167.127645 -45.005956 24.997033 53.018522 -1.226651 156.592582 59.767371 -50.346753 -5.301119 -33.753654 -80.176522 -134.481791 91.600862 -71.453721 9.158432 -118.411193 4.129637 -130.919517 -85.82832 11.054175 172.747993 -73.726431 -33.969069 54.975494 -148.965908 -44.075901 -20.371798 114.024713 38.768169 -159.302205
1.0579 53.1073 -2.9520999999999997 -137.871977 -14.705042 -129.416086 162.413072 -8.057938 -76.643648 166.030923 -2.387337 -97.910344 -96.437954 -35.678027 -2.040205 140.078266 13.235343 -91.959944 -61.00421 21.156881 -35.179444 -43.969184 -19.333533 45.752054 68.992593 30.398544 -8.129224 46.70387 16.653095 -146.274804 -147.310591 82.156586 -147.599153 119.146964 50.073476 55.869968 164.640238 -60.98178 131.289463 109.994933 -1.705255 -131.760411 -47.050884 -14.824043 -122.066481 -55.403394 -81.150063 156.078789 -79.592112 -29.19784 10.353136 -89.176478 30.355432 -107.595103 142.001381 6.774873 -12.418501 -29.44863 5.251641 149.689972 -3.669412 15.930754 54.663079 131.326809 -0.941142 62.594171 -2.718528 -10.619851 -101.745048 90.98178 -15.777579 -152.953171 -166.876814 -3.249532 57.563879 37.546202 -5.221951 -172.277827 -118.399135 -74.37116 -164.671072 18.028045 -49.667941 97.163249 -5.21527 78.002132 9.736492 92.904262 27.511189 132.935017 -77.849134 -70.844839 91.837334 172.390061 16.484263 -24.582342 -106.505126 -45.276762 -129.146201 18.945507 -1.158291 172.935722 -69.932279 50.252965 156.952774 -130.930748 64.482175 179.39496 11.519251 3.611488 -90.187651 115.837376 -37.644539 -145.660498 89.994195 31.55194 -178.308699 -18.521061 -46.008338 -5.961547 132.291814 -86.553244 -136.193801 121.014344 3.174553 96.409391 175.27189 -47.961501 -100.28004 49.445685 31.802106 -132.82232
1.3144 52.86 -3.5035 -137.175233 -14.807129 -129.384511 160.408071 -5.871363 -2.929914 -179.026895 -12.370074 -23.282273 -92.150194 -15.928505 -177.623948 -130.794067 -25.496604 104.424202 -61.323524 21.22279 -35.074622 -44.006078 -19.34995 45.749507 67.81414 47.083518 -3.688464 12.472473 33.872529 -127.702388 172.782682 39.574783 -112.060719 126.597767 42.914685 41.926476 -141.365192 74.686387 80.499342 33.972185 19.777096 162.329907 -155.079904 29.481738 -151.384595 -165.271841 -17.949289 -155.1044 42.294291 -64.844707 102.263877 161.333812 -58.551282 -100.635915 -10.34026 45.908137 -177.547237 78.134727 -24.435187 162.686508 -152.653483 -48.29386 -174.465714 49.606948 43.132814 -149.965735 -63.598708 7.102797 -88.465753 -89.911354 19.985688 38.244909 179.244034 14.014539 -23.503869 140.186725 10.76004 55.686858 -95.681029 3.292408 -133.806965 60.923595 51.99673 12.66634 -16.064298 13.552944 41.120869 -1.130611 45.749397 136.791738 -143.768074 72.182296 14.087213 176.962391 2.206147 97.458935 -81.71341 -55.369638 -114.470072 -145.112614 2.7143 1.49346 -148.290893 -57.611596 70.809631 55.133619 28.059912 131.144013 58.204027 -49.482344 -7.576973 -16.122496 -79.504956 -52.123172 -93.829772 -56.750035 -2.483202 -43.430397 -40.08052 -17.611449 126.742814 -87.080245 -142.185998 120.523716 4.28272 5.308173 122.68302 0.519362 -90.337149 -87.524133 70.678732 141.67108
1.4767000000000001 52.678999999999995 -3.9083 -136.406447 -15.17466 -129.383048 163.023034 -7.842391 -88.691094 165.393739 0.073225 -108.574184 -98.351519 -34.648385 -12.743471 144.290665 19.409866 -99.769172 -61.508123 21.255663 -35.006024 -44.046333 -19.350744 45.709747 68.228559 0.343476 -14.804326 65.514812 -13.396998 -166.94319 -171.00963 -35.519008 86.368315 61.350355 -14.842109 -114.034192 -18.051905 -80.209056 -46.545873 91.130054 -0.639809 -129.140437 -169.849474 35.635896 -147.543984 -141.810067 -40.36197 -135.130449 96.039137 -19.072656 130.950308 -95.437268 -76.833473 22.554309 125.574269 -34.568714 -31.24175 135.406324 20.608879 -16.165395 9.844184 -8.36309 43.214072 -19.344834 -23.178579 -175.243227 -171.856681 -11.907598 -58.727794 46.949891 35.285404 26.353141 13.68209 -47.412719 169.518971 148.73826 -7.288075 41.928099 134.359591 77.39892 0.010996 172.723877 10.766592 -50.120882 50.374796 -59.399156 112.538697 -29.017502 -83.892075 -129.097969 -7.726678 -58.319819 163.928868 -173.657189 -4.90684 -21.207069 37.89739 -27.029708 -46.423092 -98.082857 36.93946 -92.364537 -74.037564 50.618378 161.054553 -124.980671 49.586767 170.07959 64.924545 -49.517492 0.0 -43.077174 -78.971679 85.960545 89.986493 63.073023 8.13834 116.100679 -8.128807 148.568015 -87.795868 11.898414 176.346201 -76.81452 -30.253448 -180.0 -138.533586 43.619361 64.531571 -92.361677 7.052411 153.325526
1.5447 52.560300000000005 -4.1691 -135.788533 -15.385683 -129.2303 158.371868 -8.105719 109.576162 -166.834178 9.507675 88.502733 -83.308121 -22.680215 121.690126 -179.173324 -57.043381 23.499257 -61.435348 21.168801 -34.915927 -44.107627 -19.332901 45.608201 -82.671863 -26.117239 -176.911777 -21.296523 -4.111769 160.286134 -117.282952 -86.19467 -59.921071 119.299813 50.646672 56.884535 163.358585 -72.024249 131.799591 35.839604 22.004237 -159.714142 70.43689 33.980924 -93.797145 135.294263 38.320033 83.292242 -168.103265 47.994841 65.198848 126.94739 54.557782 2.890924 -9.990483 33.901727 -173.449419 -111.856522 25.504723 3.622173 -15.273871 30.305242 64.960565 123.759666 5.00231 78.895976 132.262375 -29.786813 -67.834833 86.259006 21.370226 -34.405779 90.586589 53.609 127.755595 57.755105 -69.920939 -103.943464 -115.416363 -82.476014 -157.953722 42.527512 -61.686107 129.654425 140.101351 48.688158 -151.051235 -9.679525 -38.993144 163.648099 -26.796296 -67.060944 144.922403 89.680536 -55.441008 -61.457481 70.7126 2.084413 -53.341019 72.455906 -62.507977 -55.698415 -76.516554 17.081895 151.320824 140.541736 -26.547144 41.002756 13.719727 12.865939 -96.591506 124.145629 -30.015562 -125.259647 93.960651 9.451672 166.595132 -75.184035 -38.850358 -22.491771 148.985561 -85.752938 -122.656378 119.470904 3.471052 104.16645 174.504169 -56.847375 -56.761135 -99.522026 20.720761 157.528327
1.5421 52.5035 -4.2957 -135.39218 -15.337446 -128.769689 158.427153 -7.856521 124.313545 -169.068358 12.921853 102.68818 -82.352715 -26.054949 105.417315 159.04948 -53.460744 -6.456885 -61.256612 21.052632 -34.847952 -44.171892 -19.310128 45.49319 66.445548 58.200949 -0.390042 -139.112008 8.648959 -51.267732 -33.581794 -72.099783 24.633318 112.119618 54.458858 67.78926 -155.354247 68.367471 93.784949 -170.608153 60.247005 -48.723921 90.037897 42.034821 -100.554088 12.774905 -73.683199 61.59668 -176.923291 48.427284 72.237871 148.974233 -29.05943 -10.76547 149.384001 67.113819 2.520467 -114.117956 -28.537549 64.86174 -128.284532 9.796511 170.283471 -122.878577 -16.542305 38.109096 -174.804321 -13.735636 -59.450074 -122.639338 1.960988 161.119731 115.902425 -40.455698 -37.171532 142.265093 -62.367889 -2.325125 -121.854503 71.091776 -104.609599 -106.932903 -61.145605 -119.342417 138.542623 33.250432 -154.89393 -139.027719 -8.402875 58.697735 7.857153 -36.001408 -179.623351 10.028681 9.420708 -128.493812 -140.749238 -22.342529 -134.136356 40.305513 44.051834 140.349637 -75.589706 52.225418 162.994247 120.948034 -62.542414 27.036571 13.875908 12.875107 -96.5157 122.095953 -29.178615 107.002658 -99.949807 45.922504 -46.177531 -70.453857 -72.065247 -13.191909 -31.95656 -24.032638 123.138442 33.127904 -47.941035 26.298784 134.094581 -15.111894 126.809398 7.587603 -11.55865 -83.91002
1.5015 52.5097 -4.314 -134.993041 -15.245617 -128.096336 157.882851 -6.24143 104.976566 -166.074031 9.089685 82.837043 -87.933015 -18.275503 163.015092 -137.387715 -41.132295 85.362458 -61.11433 21.001818 -34.859822 -44.210763 -19.285241 45.399789 69.696502 27.699841 -9.754851 -55.486832 59.197038 -74.274086 -0.842024 -8.477296 -94.737697 63.373285 -16.104616 -114.194781 -171.843254 54.927022 109.698956 28.658155 49.255638 156.912333 -1.544946 -4.89366 -97.828851 21.397791 33.925308 76.96605 -132.435497 37.432299 34.225937 153.019661 67.740031 -34.68993 73.327785 -56.779269 -84.170689 0.8564 -10.585153 -131.215895 -73.675292 45.48507 120.114012 -176.635343 2.346387 88.051413 0.224924 -10.507895 -100.864581 90.344864 -13.787668 -150.70807 167.327715 22.710251 62.397459 30.191155 -32.248479 -154.121398 -124.622816 71.417928 -101.963284 -107.062263 -59.253433 -118.669203 78.97516 -56.785399 141.884508 -44.501887 20.397677 -127.747927 -138.407259 -22.087872 32.837277 -76.986466 -1.334577 -164.474663 -108.580373 -45.761432 -126.096989 -147.878367 4.959573 16.827346 149.414957 -33.169733 6.622246 62.496473 -14.307843 171.603646 117.518214 -3.400163 83.734048 -119.531942 -30.815587 0.0 -84.695722 34.992953 123.577567 -25.381049 68.683891 -111.406171 -84.847379 11.471566 172.743993 -74.730952 -29.408322 -82.365263 127.239633 15.700859 -16.046148 116.947571 2.81277 -46.20966
1.4553 52.5549 -4.254899999999999 -134.46256 -15.341902 -127.466045 162.509445 -5.510529 -107.548877 164.362172 3.803218 -128.390857 -101.558412 -34.278417 -38.353236 159.010156 32.612652 -123.814997 -60.93795 20.954609 -34.899709 -44.237364 -19.266158 45.331511 14.282628 83.144167 56.249408 -55.899482 35.759891 -108.571134 -111.806768 -35.046866 -78.588409 65.883891 55.01117 135.176849 -15.09927 -49.0205 -38.518773 -143.573929 57.781774 -104.244439 12.796386 2.170861 -92.32456 10.943764 10.080858 85.737867 -114.11017 22.03391 20.638362 -7.558339 -34.476602 -155.673447 -13.17737 44.858909 -174.323799 80.989697 -13.34853 162.316975 26.73388 -47.482422 39.887088 30.686652 -56.629969 -114.611424 119.307362 -30.745829 -73.512316 85.316562 12.934549 -42.687492 150.713814 43.555709 74.712877 30.37203 -44.187075 -146.04857 -104.194073 -81.942514 -146.183386 44.115406 -60.523957 130.637559 -25.158444 65.429185 32.586704 -177.172717 3.391558 110.929577 -148.483061 49.700993 20.761778 5.078912 30.358419 115.679285 -116.249691 -41.980599 -128.437759 94.63908 78.247441 112.918113 -80.871823 -1.605225 147.359381 -50.206707 35.638499 101.705066 14.344305 12.855101 -96.490082 124.644822 -27.220093 -35.596132 6.814387 -87.538092 -131.094573 149.698313 5.855417 123.249907 136.883697 -86.349222 -132.664416 117.526885 0.996492 -88.500894 -169.083397 54.140656 -103.47458 -156.831977 -53.755061 -24.21156
